<?xml version="1.0" encoding="utf-8" ?><svg xmlns="http://www.w3.org/2000/svg" xmlns:xlink="http://www.w3.org/1999/xlink" width="1024" height="1024" viewBox="0 0 1024 1024"><path fill="white" d="M0 0L1024 0L1024 1024L0 1024L0 0Z"/><path fill="#0B090A" d="M634.741 186.04C651.13 133.465 684.803 88.183 734.026 62.3051C797.302 29.0384 866.369 35.7629 932.37 56.342C924.469 60.2798 916.322 63.6853 908.332 67.4358C896.865 72.9531 885.489 78.6547 874.206 84.5383C845.676 99.7944 817.757 116.165 790.512 133.611C780.208 140.318 770.212 147.563 760.024 154.452C736.794 170.16 700.082 194.733 682.849 216.525C686.575 220.758 690.215 225.016 693.726 229.43C721.904 190.177 740.985 166.626 785.246 144.044C801.402 135.802 818.505 129.415 836.469 126.515C888.117 118.178 944.183 132.283 986.353 162.985C991.866 166.998 997.551 171.384 1002.06 176.517C939.087 206.416 871.526 227.174 803.857 243.381C783.824 248.179 763.487 251.594 743.464 256.35C778.395 277.528 798.205 304.765 807.919 344.288C811.947 360.681 813.266 376.526 812.453 393.377C831.668 407.216 843.994 427.875 847.733 451.227C851.118 472.362 847.497 506.011 834.522 523.756C833.825 524.709 833 525.572 832.174 526.412C830.253 518.763 827.329 511.392 825.461 503.75C819.853 526.324 809.123 544.973 788.748 557.314C785.28 559.414 781.673 561.249 778.057 563.077C780.482 552.357 783.503 541.478 783.484 530.422C766.338 545.004 747.143 554.021 725.913 561.066C720.604 562.827 715.136 564.153 709.856 565.971C710.706 576.869 711.786 588.953 715.75 599.213C719.503 608.926 724.919 618.103 728.753 627.888C733.95 641.494 738.291 655.413 741.749 669.562C756.448 670.337 770.049 674.251 780.249 685.44C788.128 694.245 792.207 705.807 791.599 717.607C790.98 730.935 784.141 744.02 774.321 752.897C768.794 757.894 762.267 761.203 755.988 765.092C758.898 795.394 762.341 825.631 764.525 855.999C765.178 865.074 766.614 874.458 766.595 883.536C805.515 865.735 844.108 854.808 886.291 870.646C911.809 880.226 931.259 899.183 942.377 923.973C944.121 927.863 947.724 934.015 945.914 938.298C945.301 939.749 944.056 940.85 942.861 941.821C945.819 943.421 950.112 943.596 953.416 944.153C962.447 945.676 985.898 948.436 991.654 955.314C992.662 956.519 992.759 957.482 992.627 958.992C991.71 960.449 990.641 961.414 989.186 962.344C976.379 970.534 937.346 973.532 921.335 975.361C898.293 977.994 875.042 980.729 851.913 982.411C824.874 984.378 797.75 984.911 770.658 985.726C698.283 988.075 625.851 988.059 553.476 985.68C504.922 984.827 456.424 981.946 408.109 977.047C386.821 974.935 365.051 973.269 344.083 968.831C338.991 967.753 326.846 965.109 323.83 960.489C323.759 959.612 323.572 959.039 323.95 958.209C328.057 949.186 379.842 944.267 390.803 942.949C394.945 942.451 401.835 942.516 405.551 940.874C405.809 940.76 406.061 940.635 406.316 940.515C404.214 935.84 405.765 931.305 407.512 926.747C416.589 903.071 434.329 884.862 457.569 874.716C487.097 861.826 523.136 862.69 553.93 870.747C563.819 873.334 573.231 877.035 582.945 880.131L566.751 828.906C564.168 820.752 560.573 812.364 559.084 803.969C555.254 800.979 551.561 798.154 548.505 794.339C548.219 807.992 548.545 821.963 547.407 835.557C542.159 829.068 537.646 821.782 532.964 814.869C523.022 799.972 513.176 785.012 503.425 769.989C497.132 760.393 490.936 750.633 483.918 741.544C475.215 741.256 467.339 738.923 461.283 732.267C459.34 730.132 458.024 727.842 456.69 725.311C448.927 723.26 442.249 719.255 438.088 712.158C435.749 708.166 434.563 703.671 433.78 699.152C431.452 697.606 429.05 696.129 426.923 694.312C430.118 706.31 434.167 718.077 437.582 730.015L465.259 826.707C466.871 832.271 476.022 860.217 475.877 864.171C475.864 864.514 475.617 864.807 475.487 865.125C473.663 865.9 471.984 865.239 470.252 864.538C464.053 862.029 457.915 857.668 452.427 853.82C424.394 834.165 391.873 800.983 378.991 769.01C368.837 743.809 370.666 721.744 371.497 695.315C364.113 692.51 357.976 689.172 354.518 681.595C352.055 676.199 352.138 670.639 352.944 664.91C348.252 657.559 346.166 649.173 348.061 640.528C348.577 638.177 349.441 636.001 350.405 633.803C347.908 623.875 350.601 614.288 355.739 605.7C358.636 600.858 362.402 596.774 365.857 592.349C364.189 587.975 363.858 585.027 364.495 580.39C359.229 574.78 355.404 568.904 351.666 562.206C338.438 569.038 323.033 570.319 308.859 565.766C298.963 562.589 289.877 557.295 282.233 550.252C272.991 541.675 266.339 529.761 258.988 519.543C251.415 509.018 242.513 498.619 236.539 487.1C227.722 470.101 224.767 450.728 230.742 432.295C233.554 423.637 238.022 415.608 243.896 408.655C237.746 399.462 231.13 390.59 225.022 381.374C207.788 385.131 189.196 383.505 174.102 373.704C168.966 370.369 164.22 365.948 160.233 361.316C151.067 350.666 143.41 338.135 135.436 326.564C129.312 317.678 122.375 309.013 117.263 299.505C114.168 293.75 111.695 287.611 110.376 281.194C109.36 276.251 109.172 271.25 109.33 266.218C102.956 261.585 96.8461 256.849 91.4808 251.031C82.1241 240.886 74.4341 228.46 66.4506 217.199C58.1014 205.423 46.6909 191.183 40.49 178.297C37.1395 171.334 35.0086 163.726 33.8177 156.104C30.9308 137.626 34.592 118.951 45.7622 103.76C55.9321 89.9299 72.3721 80.104 89.3493 77.5092C107.255 74.7725 125.559 80.6127 139.96 91.2376C143.897 94.1389 147.449 97.5282 150.533 101.324C159.916 112.745 167.747 126.125 176.032 138.382C182.796 148.389 191.96 159.992 197.249 170.668C200.266 176.756 202.149 183.517 203.082 190.234C203.503 193.263 203.636 196.278 203.636 199.333C209.291 203.126 215.252 206.814 219.887 211.868C229.007 221.813 238.365 238.395 245.98 250.091C252.765 260.511 260.506 270.832 266.194 281.874C268.849 287.027 270.697 292.745 271.843 298.418C275.833 318.161 271.546 333.001 260.564 349.362L258.832 351.928C267.825 362.561 275.945 374.399 284.123 385.691C298.162 383.851 309.101 384.678 322.023 390.985C325.442 392.654 329.011 394.388 332.037 396.713C336.036 399.83 339.661 403.399 342.84 407.349C352.847 419.638 364.336 437.662 373.149 451.129C377.896 458.383 383.554 465.882 387.342 473.669C390.69 480.677 392.86 488.188 393.767 495.901C395.719 511.413 392.069 522.817 384.657 536.241C389.603 544.198 395.226 551.831 400.56 559.536C405.942 559.318 410.985 559.184 416.255 560.435C427.876 563.192 439.528 569.659 450.313 574.76C460.831 579.735 471.514 584.57 481.769 590.064C502.55 584.171 520.703 575.235 538.084 562.427C541.775 559.708 545.767 556.99 549.022 553.758C540.271 549.147 531.436 544.603 523.1 539.263C494.875 521.181 469.304 495.936 459.071 463.255C458.077 460.004 457.117 456.743 456.191 453.471C452.487 462.006 449.483 471.48 448.323 480.738C438.678 465.794 437.724 447.363 441.413 430.336C443.659 419.965 447.943 411.391 453.662 402.507C444.218 407.328 434.6 412.362 425.953 418.529C430.655 395.943 444.859 373.927 464.19 361.135C470.885 356.705 477.262 354.799 485.085 353.289C501.594 311.95 528.259 260.463 571.278 242.109C575.836 240.2 580.458 238.445 585.135 236.847C570.717 231.514 556.371 226.657 542.805 219.321C566.147 206.626 591.297 200.716 617.698 205.505C608.19 196.744 597.655 189.197 588.087 180.544C606.546 180.021 616.887 181.139 634.741 186.04Z"/><path fill="#D3D3D3" d="M692.945 938.534C694.878 944.06 696.686 949.673 698.875 955.102C745.62 968.554 821.117 977.423 869.54 972.846C875.428 972.29 884.283 972.158 889.385 969.105C890.783 968.269 891.514 967.064 892.223 965.65C904.099 964.29 925.703 964.217 933.749 954.905L931.5 945.993C935.373 944.73 939.06 943.241 942.861 941.821C945.819 943.421 950.112 943.596 953.416 944.153C962.447 945.676 985.898 948.436 991.654 955.314C992.662 956.519 992.759 957.482 992.627 958.992C991.71 960.449 990.641 961.414 989.186 962.344C976.379 970.534 937.346 973.532 921.335 975.361C898.293 977.994 875.042 980.729 851.913 982.411C824.874 984.378 797.75 984.911 770.658 985.726C698.283 988.075 625.851 988.059 553.476 985.68C504.922 984.827 456.424 981.946 408.109 977.047C386.821 974.935 365.051 973.269 344.083 968.831C338.991 967.753 326.846 965.109 323.83 960.489C323.759 959.612 323.572 959.039 323.95 958.209C328.057 949.186 379.842 944.267 390.803 942.949C394.945 942.451 401.835 942.516 405.551 940.874C405.809 940.76 406.061 940.635 406.316 940.515C406.453 940.593 406.587 940.675 406.726 940.751C406.956 940.877 407.19 940.995 407.421 941.119C411.918 943.533 417.643 943.966 422.644 944.719C422.345 946.328 422.041 947.949 421.948 949.586C421.828 951.705 422.206 953.476 423.706 955.05C430.154 961.821 453.008 962.478 462.578 962.572C463.304 964.281 463.894 965.591 465.536 966.638C471.455 970.408 486.637 970.176 493.665 970.46C553.838 972.894 613.779 965.514 672.551 953.033C672.491 948.493 671.919 943.99 671.347 939.492C676.369 939.386 688.728 940.023 692.945 938.534Z"/><path fill="white" d="M663.311 874.186C665.426 873.993 667.587 874.027 669.711 873.979C672.854 880.268 675 887.195 677.399 893.796C682.791 908.627 687.765 923.625 692.945 938.534C688.728 940.023 676.369 939.386 671.347 939.492C670.153 931.469 669.541 923.307 668.545 915.25L663.311 874.186Z"/><path fill="white" d="M693.653 243.215C698.316 237.775 701.655 230.893 705.681 224.933C711.838 215.816 719.072 207.151 726.43 198.986C760.068 161.66 807.452 135.25 858.264 132.734C898.657 130.735 940.472 141.475 974.091 164.129C979.054 167.474 984.215 170.764 988.668 174.775L981.236 177.63C954.157 163.695 913.363 158.939 882.874 159.435C828.535 160.32 777.448 179.731 739.48 219.278C735.978 222.925 715.914 245.878 715.975 249.151C728.116 254.986 741.692 261.649 751.791 270.688C751.922 270.805 752.049 270.925 752.178 271.043C780.202 290.187 795.656 322.514 801.808 355.048C804.434 368.937 805.668 381.599 802.054 395.467C823.046 410.958 836.273 428.27 840.247 454.754C842.72 471.226 840.334 489.861 834.116 505.291C831.15 494.783 826.22 483.603 818.21 475.983C820.846 495.798 816.097 516.991 803.89 533.051C799.749 538.499 794.731 543.253 789.654 547.816C791.894 535.668 791.584 522.529 789.153 510.404C785.711 514.711 782.985 519.523 778.972 523.364C753.648 547.607 710.127 559.9 675.984 563.68C665.841 564.803 654.012 566.355 643.901 565.027C631.934 565.659 619.55 565.04 607.648 563.681C562.096 558.479 513.709 532.366 485.182 496.159C475.55 483.933 462.335 459.858 460.654 444.227C460.428 442.13 460.766 439.943 461.017 437.858C454.558 442.875 449.885 448.681 447.191 456.437C447.005 452.533 446.746 448.592 446.803 444.683C447.105 423.682 457.412 406.248 472.122 392.032C458.334 392.741 450.582 394.841 438.963 402.121C441.159 397.37 443.94 392.874 446.98 388.619C457.986 373.214 471.903 362.021 490.906 358.782C495.149 349.599 498.563 340.048 502.939 330.906C516.251 303.095 537.688 269.143 564.841 253.266C574.463 247.64 585.341 245.655 595.068 240.661C595.216 240.585 595.361 240.506 595.508 240.428C611.043 245.095 627.672 248.037 643.888 248.651L578.476 226.144C571.097 223.559 563.583 221.339 556.285 218.531C562.403 216.853 568.523 215.101 574.719 213.726C611.598 205.54 631.441 215.124 661.864 234.615C651.377 222.07 638.585 212.818 625.926 202.663C619.252 197.308 612.551 191.28 605.218 186.876C611.197 187.555 617.067 188.323 622.917 189.801C653.914 197.631 677.428 216.046 693.653 243.215Z"/><path fill="#D3D3D3" d="M752.178 271.043C780.202 290.187 795.656 322.514 801.808 355.048C804.434 368.937 805.668 381.599 802.054 395.467C823.046 410.958 836.273 428.27 840.247 454.754C842.72 471.226 840.334 489.861 834.116 505.291C831.15 494.783 826.22 483.603 818.21 475.983C820.846 495.798 816.097 516.991 803.89 533.051C799.749 538.499 794.731 543.253 789.654 547.816C791.894 535.668 791.584 522.529 789.153 510.404C785.711 514.711 782.985 519.523 778.972 523.364C753.648 547.607 710.127 559.9 675.984 563.68C665.841 564.803 654.012 566.355 643.901 565.027C647.014 562.966 660.788 562.003 665.299 561.121C680.761 558.098 696.361 553.833 710.942 547.823C732.892 538.776 754.242 527.68 769.899 509.29C773.43 505.141 776.971 500.509 778.987 495.399C783.526 483.892 779.467 470.167 774.794 459.394C782.915 464.841 789.157 469.669 793.988 478.355C794.058 465.133 791.839 450.316 785.817 438.429C801.865 444.426 809.742 453.391 820.862 465.664C821.098 451.655 818.56 438.57 811.981 426.119C803.41 409.899 788.457 399.842 771.169 394.563C781.564 360.419 775.329 326.157 762.352 293.65C759.289 285.977 755.358 278.668 752.178 271.043Z"/><path fill="#0B090A" d="M562.093 402.663C562.547 402.617 563.001 402.566 563.456 402.538C578.485 401.591 593.65 404.83 605.059 415.114C593.708 415.483 584.617 420.111 576.152 427.562C574.725 433.697 574.501 440.575 573.857 446.861C584.23 457.601 602.838 465.065 617.545 466.324C634.887 467.809 654.981 461.128 668.228 449.916C661.737 449.091 655.31 447.947 648.757 447.758C654.448 445.813 659.907 444.81 665.941 444.891C682.881 445.118 695.23 452.377 706.759 464.171C696.038 458.02 685.209 453.186 672.916 451.189C666.778 458.506 661.674 467.159 656.372 475.105C646.788 489.469 637.206 503.823 626.607 517.466C619.72 525.939 612.659 533.12 601.775 535.951C593.744 538.041 585.622 537.301 578.395 533.016C556.881 520.262 542.04 476.342 536.141 452.926C529.253 446.266 523.317 441.137 518.707 432.532C516.254 427.952 514.312 423.086 511.659 418.618L511.376 418.151C505.163 419.936 499.315 422.626 493.399 425.198C493.952 424.411 494.532 423.643 495.139 422.897C499.614 417.45 506.416 412.552 513.633 412.13C518.927 411.82 522.639 414.003 526.447 417.412C524.564 417.175 522.675 416.992 520.782 416.863C519.059 416.744 517.509 416.623 516.155 417.795C516.466 419.713 517.228 421.438 518.062 423.18C523.419 434.36 533.141 446.921 545.379 450.928C553.434 453.565 560.43 451.213 567.567 447.518C568.484 441.564 568.782 435.463 569.279 429.46C566.257 422.542 560.447 413.616 554.136 409.431L553.291 408.878C553.015 407.475 553.106 406.944 553.699 405.646C556.128 403.281 558.891 403.106 562.093 402.663Z"/><path fill="#A4161A" d="M542.485 456.071C547.213 457.025 551.528 457.656 556.359 457.499C555.191 466.146 556.59 475.592 561.857 482.774C565.913 488.304 572.299 491.704 579.028 492.635C585.451 493.528 591.996 492.682 597.981 490.186C598.235 490.005 598.491 489.829 598.742 489.644C604.268 485.577 607.396 478.219 608.354 471.579C627.694 474.022 642.83 469.168 660.386 462.024C654.652 470.196 649.816 479.093 643.866 487.081L637.878 496.714C623.789 492.647 607.062 496.884 594.556 503.767C585.523 508.738 578.04 515.469 574.424 525.321C562.584 511.803 554.035 492.014 548.407 474.968C546.36 468.766 544.947 462.089 542.485 456.071Z"/><path fill="#660708" d="M608.354 471.579C627.694 474.022 642.83 469.168 660.386 462.024C654.652 470.196 649.816 479.093 643.866 487.081C637.523 484.177 618.628 486.063 611.706 487.385C607.63 488.164 602.002 490.796 597.981 490.186C598.235 490.005 598.491 489.829 598.742 489.644C604.268 485.577 607.396 478.219 608.354 471.579Z"/><path fill="#F4756D" d="M622.109 498.749C626.578 498.383 630.859 498.719 635.293 499.309C626.657 512.491 615.531 529.83 599.008 533.14C592.013 534.542 585.261 533.243 579.352 529.218C578.127 528.384 577.025 527.591 576.484 526.189C577.803 523.322 579.436 520.611 581.353 518.105C590.935 505.795 607.209 500.592 622.109 498.749Z"/><path fill="#E5383B" d="M622.109 498.749C626.578 498.383 630.859 498.719 635.293 499.309C626.657 512.491 615.531 529.83 599.008 533.14C592.013 534.542 585.261 533.243 579.352 529.218C578.127 528.384 577.025 527.591 576.484 526.189C579.183 527.187 581.989 527.869 584.845 528.221C593.136 529.235 600.095 526.198 606.48 521.185C613.38 515.767 620.987 507.754 622.109 498.749Z"/><path fill="#D3D3D3" d="M561.311 456.334C564.774 455.361 568.461 454.553 571.802 453.241C582.402 460.967 593.346 466.509 605.769 470.756C604.574 473.693 603.469 476.713 601.922 479.485C601.526 480.263 601.125 481.021 600.634 481.745C597.999 485.625 593.284 487.931 588.753 488.664C581.833 489.725 574.777 487.961 569.17 483.769C563.48 479.503 561.07 473.783 560.21 466.92C559.787 463.363 560.532 459.795 561.311 456.334Z"/><path fill="white" d="M560.21 466.92C563.264 465.732 585.124 475.39 589.924 476.842C593.373 477.885 596.988 478.204 600.512 478.906C601.299 479.063 601.061 479.028 601.922 479.485C601.526 480.263 601.125 481.021 600.634 481.745C597.999 485.625 593.284 487.931 588.753 488.664C581.833 489.725 574.777 487.961 569.17 483.769C563.48 479.503 561.07 473.783 560.21 466.92Z"/><path fill="#E8A59C" d="M561.099 408.689C561.638 407.792 561.267 408.066 562.423 407.795C568.377 406.398 585.485 408.157 590.788 411.299C591.214 411.551 591.289 411.678 591.575 412.007L590.67 412.771C583.866 414.297 578.482 420.093 572.896 423.879C568.574 419.457 564.906 413.62 561.099 408.689Z"/><path fill="white" d="M561.099 408.689C561.638 407.792 561.267 408.066 562.423 407.795C568.377 406.398 585.485 408.157 590.788 411.299C591.214 411.551 591.289 411.678 591.575 412.007L590.67 412.771C580.858 411.264 570.746 411.2 561.099 408.689Z"/><path fill="#0B090A" d="M668.12 310.106C675.494 309.17 682.917 310.431 689.222 314.525C699.708 321.333 705.334 333.854 707.679 345.736C710.739 361.242 708.45 379.655 701.72 393.947C698.954 399.823 695.361 405.178 691.774 410.571C700.428 409.381 707.768 409.304 716.173 412C703.614 411.726 691.876 414.043 680.297 418.838C674.461 421.829 668.531 425.064 662.118 426.631C654.634 428.461 646.193 428.208 639.536 423.988C630.63 418.343 626.249 407.565 624.14 397.664C619.69 376.769 623.449 352.736 635.286 334.83C643.604 322.246 652.988 313.18 668.12 310.106Z"/><path fill="white" d="M665.592 320.56C671.403 320.139 676.869 320.475 682.24 322.975C690.75 326.936 696.317 334.336 699.376 343.054C705.437 360.327 702.668 381.159 694.78 397.387C687.763 411.823 674.88 419.18 660.239 424.231C662.48 422.804 664.715 421.329 666.621 419.467C672.228 413.995 675.775 406.433 675.713 398.535C675.66 391.802 672.761 387.152 668.223 382.515C665.2 381.819 662.252 381.701 659.458 380.238C658.937 379.758 658.442 379.268 658.001 378.711C653.195 372.645 658.934 367.083 659.549 361.029C658.918 359.52 658.338 359.06 656.903 358.228C654.564 356.857 651.771 356.485 649.155 357.197C643.171 358.856 638.174 364.822 635.176 370.055C626.974 384.375 629.274 397.738 633.482 412.797C631.442 409.05 629.904 405.238 628.803 401.11C623.58 381.517 628.159 359.081 638.372 341.821C644.766 331.015 653.33 323.659 665.592 320.56Z"/><path fill="white" d="M648.901 386.438C649.927 386.422 651.055 386.361 652.053 386.628C653.581 387.037 654.974 388.28 655.765 389.627C656.882 391.528 657.038 393.758 656.427 395.851C655.689 398.379 654.319 399.696 652.096 400.988C649.825 400.902 647.945 400.798 646.255 399.077C645.013 397.81 644.48 396.172 644.535 394.416C644.645 390.882 646.408 388.723 648.901 386.438Z"/><path fill="#161A1D" d="M632.925 411.802C635.357 413.391 636.135 415.158 637.306 417.73C635.089 416.368 633.94 414.126 632.925 411.802Z"/><path fill="#0B090A" d="M560.999 297.572C561.561 297.535 562.124 297.502 562.688 297.49C567.789 297.382 572.041 298.694 575.752 302.37C582.776 309.328 584.66 321.031 584.5 330.503C584.137 352.028 575.069 375.27 559.43 390.295C554.96 394.59 549.621 398.164 543.157 397.856C535.27 397.48 528.455 392.747 523.295 387.126C515.162 378.364 508.705 374.339 497.124 371.283C507.81 370.952 514.006 373.503 521.91 380.494C519.447 360.229 523.547 339.708 533.608 321.945C540.045 310.314 547.986 301.358 560.999 297.572Z"/><path fill="white" d="M558.63 306.59C560.308 306.413 562.071 306.277 563.753 306.437C567.612 306.803 571.31 309.153 573.654 312.17C579.787 320.06 579.939 332.88 578.839 342.33C576.683 360.857 566.737 381.088 551.982 392.761C557.333 386.065 561.072 380.356 561.5 371.5C561.873 363.78 560.272 353.8 554.713 348.046C551.721 344.948 548.709 344.121 544.504 344.153C540.85 345.514 538.053 347.602 535.665 350.705C529.967 358.108 528.475 369.033 529.661 378.087C530.554 384.902 532.975 389.947 538.452 394.106C532.904 391.743 529.241 388.864 525.338 384.326C523.552 368.562 526.043 352.777 532.019 338.079C537.124 325.523 545.724 312.084 558.63 306.59Z"/><path fill="white" d="M547.559 357.388C548.175 357.368 548.629 357.338 549.259 357.388C550.773 357.507 552.072 358.36 553.005 359.532C554.298 361.157 554.575 363.038 554.374 365.057C554.023 368.598 552.486 370.442 549.862 372.703C549.556 372.736 549.252 372.813 548.944 372.801C547.787 372.757 546.061 372.078 545.247 371.226C544.052 369.976 543.582 368.396 543.557 366.702C543.499 362.761 544.818 360.13 547.559 357.388Z"/><path fill="#0B090A" d="M676.894 273.172C677.346 273.135 677.798 273.092 678.251 273.08C689.48 272.776 699.07 277.716 707.005 285.403C718.153 296.204 723.618 310.71 723.839 326.055C720.989 320.61 718.173 315.235 714.744 310.124C709.937 303.223 704.174 296.888 697.176 292.154C683.439 282.861 668.791 281.795 652.857 284.798C659.43 278.002 667.688 274.579 676.894 273.172Z"/><path fill="#0B090A" d="M572.097 265.585C575.53 265.502 578.801 265.662 581.884 267.36C588.034 270.748 590.3 277.547 592.047 283.884C587.912 280.396 583.765 277.471 578.412 276.167C568.823 273.83 559.384 278.04 551.287 282.786C545.236 286.761 539.785 291.277 534.34 296.024C534.42 295.897 534.498 295.769 534.579 295.643C542.425 283.428 557.585 268.861 572.097 265.585Z"/><path fill="white" d="M653.645 571.355C661.551 570.954 669.457 570.598 677.333 569.77C685.618 568.899 693.846 567.585 702.149 566.876C702.414 570.065 702.734 573.226 703.165 576.396C704.475 584.433 705.591 592.906 708.493 600.541C711.636 608.812 716.426 616.498 719.677 624.821C726.662 642.555 732.19 660.828 736.206 679.46C741.566 704.579 744.788 730.389 747.716 755.886C750.496 779.071 752.849 802.306 754.773 825.579C756.484 846.375 757.7 867.216 760.058 887.955C750.192 895.532 740.891 903.007 732.292 912.029C748.004 902.358 764 892.492 780.919 885.063C807.561 873.366 841.25 867.445 869.741 874.105C894.223 879.829 914.806 894.032 928.758 914.905C925.266 917.966 920.305 919.267 915.904 920.471C897.702 900.414 883.927 893.754 857.523 888.96C864.195 891.415 870.911 893.801 877.254 897.042C893.484 905.336 907.951 919.318 917.369 934.88C921.383 941.09 923.792 946.362 925.071 953.703C913.878 955.638 902.238 957.686 890.848 957.421C888.294 951.889 885.763 946.399 882.765 941.089C869.899 922.757 852.814 908.151 830.171 904.105C827.638 903.652 825.092 903.274 822.536 902.973C843.862 911.114 863.443 924.942 875.499 944.664C878.945 950.52 881.513 956.375 884.008 962.673C838.911 972.64 750.551 960.847 704.965 949.486C703.251 945.302 702.02 940.839 700.508 936.568L691.203 910.889C681.458 883.676 671.033 856.712 659.939 830.021C669.625 827.16 679.298 823.767 688.173 818.898C693.602 815.92 698.644 812.37 703.909 809.128C706.671 806.684 709.376 804.176 712.022 801.607C686.622 817.057 663.643 827.868 633.031 826.893C604.172 825.974 575.008 815.59 554.976 794.076C532.415 769.845 527.364 738.077 528.4 706.206L528.524 700.457C532.122 701.158 535.81 701.735 539.359 702.64L538.941 708.731C539.483 714.48 539.588 720.219 540.425 725.949C544.352 752.805 556.944 779.699 579.124 796.167C588.284 802.969 599.882 807.855 611.46 806.113C622.027 804.522 631.227 798.192 637.411 789.602C655.925 763.883 649.263 726.485 644.705 697.395C643.256 692.789 642.751 687.08 641.818 682.299C661.96 671.564 679.099 655.965 691.676 636.919C695.757 628.314 699.232 619.929 702.418 610.959C697 619.527 692.82 628.581 686.347 636.485C665.108 668.634 627.634 685.901 591.051 693.341C568.811 697.864 534.752 701.214 514.515 690.171C516.457 693.301 519.151 695.509 521.961 697.812C516.593 708.289 511.383 719.012 502.646 727.154C497.102 732.319 490.5 736.74 482.578 736.321C474.973 735.919 468.514 731.919 463.535 726.403C466.156 726.358 468.695 726.266 471.263 725.695C478.313 724.128 484.098 720.167 487.946 714.113C484.071 716.907 480.16 719.129 475.496 720.333C467.331 722.44 457.402 720.986 450.238 716.511C444.531 712.946 441.349 707.637 439.941 701.197C450.996 703.991 461.459 704.322 471.937 699.299C469.938 699.54 467.929 699.774 465.919 699.902C455.241 700.581 439.213 697.872 431.154 690.371C428.484 687.887 425.584 683.636 425.53 679.854C425.356 667.801 448.227 669.171 455.679 666.912C458.367 666.097 460.748 664.482 462.717 662.499C465.607 659.587 468.405 655.094 468.265 650.844C468.021 643.419 457.225 638.919 452.308 634.374C452.147 634.226 451.991 634.073 451.832 633.923C452.963 633.567 454.106 633.248 455.258 632.967C467.129 630.136 479.771 631.093 490.266 637.611C501.885 644.826 505.419 655.948 508.417 668.558L508.349 658.514C552.382 652.424 591.435 629.016 624.586 600.299C632.76 593.218 641.48 585.837 648.295 577.398C649.958 575.315 651.868 573.348 653.645 571.355Z"/><path fill="#D3D3D3" d="M659.939 830.021C669.625 827.16 679.298 823.767 688.173 818.898C693.602 815.92 698.644 812.37 703.909 809.128C700.926 817.385 682.116 825.648 675.006 830.807C677.686 837.782 681.114 844.418 683.9 851.346C690.694 868.238 696.9 885.365 703.546 902.312C707.712 912.937 712.721 923.758 715.86 934.72C728.323 937.678 740.781 940.849 753.413 942.998C787.714 948.835 827.737 952.242 862.351 947.154C866.695 946.516 871.309 945.978 875.499 944.664C878.945 950.52 881.513 956.375 884.008 962.673C838.911 972.64 750.551 960.847 704.965 949.486C703.251 945.302 702.02 940.839 700.508 936.568L691.203 910.889C681.458 883.676 671.033 856.712 659.939 830.021Z"/><path fill="#D3D3D3" d="M514.515 690.171L513.735 689.599C515.027 687.357 555.183 685.161 559.884 684.724C566.453 684.12 573.001 683.31 579.519 682.294C609.262 677.614 638.271 668.402 664.025 652.595C666.594 651.017 669.17 649.449 671.556 647.6C675.767 644.335 680.744 639.2 685.428 636.914C685.732 636.766 686.041 636.628 686.347 636.485C665.108 668.634 627.634 685.901 591.051 693.341C568.811 697.864 534.752 701.214 514.515 690.171Z"/><path fill="#D3D3D3" d="M917.369 934.88C921.383 941.09 923.792 946.362 925.071 953.703C913.878 955.638 902.238 957.686 890.848 957.421C888.294 951.889 885.763 946.399 882.765 941.089C893.042 939.592 908.322 939.82 917.369 934.88Z"/><path fill="#D3D3D3" d="M641.818 682.299C661.96 671.564 679.099 655.965 691.676 636.919C691.411 640.014 689.819 643.052 688.546 645.866C680.933 662.699 668.469 677.512 654.327 689.339C651.42 691.77 646.441 694.09 644.705 697.395C643.256 692.789 642.751 687.08 641.818 682.299Z"/><path fill="#D3D3D3" d="M653.645 571.355C661.551 570.954 669.457 570.598 677.333 569.77C685.618 568.899 693.846 567.585 702.149 566.876C702.414 570.065 702.734 573.226 703.165 576.396C684.717 578.456 666.798 578.112 648.295 577.398C649.958 575.315 651.868 573.348 653.645 571.355Z"/><path fill="#D3D3D3" d="M528.524 700.457C532.122 701.158 535.81 701.735 539.359 702.64L538.941 708.731C535.451 708.304 531.91 706.874 528.4 706.206L528.524 700.457Z"/><path fill="white" d="M569.687 812.988C596.096 828.511 620.433 834.97 651.248 831.961C653.795 844.482 654.44 857.86 655.883 870.6C658.673 896.175 661.789 921.714 665.23 947.21C617.787 957.309 569.468 962.729 520.967 963.393C504.132 963.605 486.515 963.511 469.82 961.132C472.85 953.082 476.433 943.459 481.754 936.676C495.379 917.366 516.631 905.253 539.334 899.555C520.864 899.248 500.272 907.888 487.044 920.71C481.542 926.043 476.815 932.376 472.426 938.636C469.396 944.123 466.811 949.764 464.235 955.471C452.764 956.64 439.88 954.538 428.962 951.061C429.829 942.83 432.765 936.234 436.711 929.037C444.645 913.487 460.137 901.836 475.717 894.768C480.454 892.618 485.473 891.251 490.189 889.089L490.707 888.845C485.539 889.034 480.392 889.564 475.365 890.816C454.848 895.924 440.55 909.582 429.877 927.202C425.304 925.89 421.579 923.436 417.572 920.973C417.617 920.891 417.66 920.809 417.705 920.727C429.603 899.451 449.499 883.803 472.98 877.255C509.357 866.872 549.754 873.901 583.863 888.915C593.851 893.312 603.309 898.736 612.851 904.007C606.491 897.68 599.757 892.11 592.704 886.585C587.092 865.132 579.816 844.034 573.181 822.875C571.876 819.618 570.765 816.326 569.687 812.988Z"/><path fill="#D3D3D3" d="M569.687 812.988C596.096 828.511 620.433 834.97 651.248 831.961C653.795 844.482 654.44 857.86 655.883 870.6C658.673 896.175 661.789 921.714 665.23 947.21C617.787 957.309 569.468 962.729 520.967 963.393C504.132 963.605 486.515 963.511 469.82 961.132C472.85 953.082 476.433 943.459 481.754 936.676C482.443 937.271 483.14 937.853 483.879 938.385C489.499 942.432 498.925 942.884 505.657 943.572C552.667 948.371 601.734 941.506 648.151 934.419C641.246 903.892 633.402 873.539 626.193 843.079C616.309 841.675 607.062 838.984 597.863 835.099C592.151 832.687 586.889 829.82 581.623 826.576C579.868 825.494 576.423 822.87 574.472 822.589C574.036 822.527 573.611 822.78 573.181 822.875C571.876 819.618 570.765 816.326 569.687 812.988Z"/><path fill="#D3D3D3" d="M428.962 951.061C429.829 942.83 432.765 936.234 436.711 929.037C445.208 936.804 461.442 938.296 472.426 938.636C469.396 944.123 466.811 949.764 464.235 955.471C452.764 956.64 439.88 954.538 428.962 951.061Z"/><path fill="#BA181B" d="M191.435 240.914C191.026 241.515 190.611 242.111 190.19 242.702C180.206 256.686 167.083 268.265 149.603 271.025C134.706 273.377 119.882 267.091 108.05 258.442C103.221 254.934 98.8027 250.893 94.8795 246.395C85.1921 235.23 77.1124 222.291 68.6168 210.203C61.0489 199.434 52.1878 188.566 46.1646 176.885C42.6999 170.109 40.3648 162.813 39.2516 155.284C36.6379 138.077 40.3475 120.497 50.8078 106.469C60.9068 92.9252 75.7088 85.4973 92.2614 83.0898C108.349 80.7499 123.611 86.2091 136.364 95.8659C140.798 99.2234 144.646 103.054 148.134 107.389C155.285 116.276 161.27 126.59 167.718 136.037C175.075 146.817 188.136 163.941 193.366 174.963C196.58 181.738 197.804 189.167 198.786 196.536C196.261 195.541 193.832 194.318 191.529 192.881L188.382 191.916C182.36 190.249 176.277 189.094 169.991 189.248C161.237 175.515 152.237 161.939 142.997 148.529C137.731 140.812 132.782 131.946 125.836 125.623C120.88 121.111 114.366 117.629 107.814 116.172C99.4802 114.317 90.037 115.76 82.812 120.364C75.7685 124.756 70.7951 131.804 69.0183 139.912C66.4348 151.657 69.9954 161.446 76.3454 171.259C82.9398 181.451 90.0932 191.386 97.1232 201.28C108.086 216.71 119.349 236.778 139.406 241.051C143.115 241.841 146.921 242.055 150.696 242.324C158.581 239.288 162.741 232.965 167.906 231.15C168.189 231.074 168.48 231.026 168.77 230.987C175.708 230.046 186.253 236.914 191.435 240.914Z"/><path fill="#F5F3F4" d="M188.382 191.916C186.96 186.072 185.474 180.387 182.763 174.975C177.721 164.906 170.088 156.052 163.761 146.78C155.434 134.575 147.971 120.797 138.028 109.841C134.802 106.287 130.737 103.384 126.652 100.898C113.145 92.6767 95.1327 89.7624 79.6787 93.4564C77.6912 93.9315 68.7025 97.7021 67.5195 97.1179C83.2112 89.2181 98.4671 86.1312 115.528 91.8526C124.213 94.7085 132.159 99.4492 138.798 105.735C149.391 115.882 156.942 130.292 165.212 142.383C172.378 152.857 180.871 163.049 186.543 174.433C189.163 179.693 191.384 186.993 191.529 192.881L188.382 191.916Z"/><path fill="#F5F3F4" d="M167.906 231.15C168.207 232.694 166.86 234.441 165.99 235.752C162.082 241.643 157.08 245.336 150.015 246.587C139.277 248.487 127.183 245.469 118.374 239.143C113.863 235.904 109.844 231.71 106.318 227.441C98.7207 218.242 92.2538 207.838 85.6172 197.912C79.7358 189.115 73.2821 180.245 68.4125 170.861C66.4125 167.007 64.6995 162.808 64.0278 158.499C63.8007 157.042 63.6787 155.56 63.5466 154.092C65.157 159.17 66.9721 163.823 69.5385 168.496C75.2703 178.932 83.0741 188.591 89.9217 198.325C96.341 207.45 102.309 217.316 109.663 225.713C113.954 230.612 118.906 235.481 124.723 238.516C132.958 242.814 141.587 244.092 150.696 242.324C158.581 239.288 162.741 232.965 167.906 231.15Z"/><path fill="#E8A59C" d="M876.455 162.709C905.963 159.947 950.433 167.082 977.024 179.505C965.777 185.662 950.426 191.011 938.259 195.557C894.917 211.52 850.663 224.892 805.734 235.603C789.683 239.628 773.535 243.257 757.306 246.488C749.048 248.199 740.294 249.339 732.206 251.569L720.768 247.414C724.029 241.742 728.365 236.44 732.644 231.503C771.848 186.273 817.366 167.004 876.455 162.709Z"/><path fill="#E8A59C" d="M852.845 60.7097C866.92 58.8673 887.445 61.3563 901.578 63.2305C856.204 85.0469 812.516 110.21 770.876 138.51C745.955 155.15 721.513 172.244 698.796 191.848C691.43 198.111 684.517 204.725 677.725 211.604L669.927 204.686C675.935 176.782 688.701 151.903 707.236 130.214C744.457 86.6607 796.587 65.0864 852.845 60.7097Z"/><path fill="white" d="M541.136 702.834C574.791 705.737 609.797 698.017 640 683.323C640.998 688.409 641.552 693.643 642.284 698.778C646.449 727.336 652.738 763.614 634.174 788.505C628.327 796.344 619.927 801.969 610.126 803.286C599.002 804.781 587.887 799.661 579.26 793.007C556.411 775.383 545.569 746.299 542.124 718.493C541.84 716.201 541.571 713.879 541.429 711.573C541.451 708.672 541.247 705.735 541.136 702.834Z"/><path fill="#D3D3D3" d="M541.136 702.834C574.791 705.737 609.797 698.017 640 683.323C640.998 688.409 641.552 693.643 642.284 698.778C636.294 701.332 630.556 704.29 624.401 706.472C596.942 716.205 569.799 715.041 541.429 711.573C541.451 708.672 541.247 705.735 541.136 702.834Z"/><path fill="#BA181B" d="M405.081 662.287C409.138 665.917 413.194 672.901 415.165 678.015C417.419 683.865 418.698 690.226 420.41 696.256C423.204 706.1 426.249 715.891 429.166 725.701C442.148 769.359 454.168 813.37 467.953 856.771C461.997 853.019 456.44 848.783 450.939 844.403C442.287 837.846 434.208 830.991 426.597 823.24C406.092 802.358 382.9 774.302 378.456 744.63C376.05 728.565 377.112 712.208 377.256 696.033C382.026 696.256 386.848 696.343 391.235 694.135C401.968 688.733 399.983 676.371 403.417 666.906L405.081 662.287Z"/><path fill="white" d="M821.239 46.2039C846.326 44.2317 872.442 47.5231 896.882 52.9524C903.253 54.3677 909.605 55.6887 915.739 57.9647C912.818 59.4005 910.661 60.4633 907.335 60.5568C898.736 60.7985 889.535 58.5692 880.897 57.8634C860.383 56.3835 839.763 57.7628 819.63 61.9616C763.923 73.9094 719.367 102.73 688.338 150.752C677.981 167.846 672.68 183.838 667.239 202.822C659.115 197.571 651.121 192.559 642.097 188.948C649.361 160.154 664.915 132.471 684.422 110.196C719.73 69.8774 768.402 49.779 821.239 46.2039Z"/><path fill="#BA181B" d="M167.283 194.632C170.749 194.403 174.081 194.625 177.506 195.192C195.953 198.244 211.323 208.592 222.033 223.745C227.83 231.945 232.981 240.672 238.539 249.045C247.125 261.981 259.799 277.792 264.911 292.073C268.428 301.871 269.368 312.408 267.642 322.674C265.668 333.754 259.45 347.302 250.016 353.918C243.785 346.71 238.603 338.702 233.416 330.735C234.224 328.818 235.492 327.233 236.474 325.413C239.879 319.103 241.527 312.202 240.346 305.063C239.747 301.44 238.045 297.87 236.211 294.703C232.08 287.57 226.558 281.034 221.806 274.3C213.564 262.622 201.781 241.732 190.489 233.721C186.31 230.817 181.682 228.62 176.79 227.217C160.402 222.642 160.204 234.668 148.029 236.433C140.162 237.574 132.065 233.186 125.988 228.642C128.022 224.287 130.589 220.078 133.394 216.179C141.896 204.359 152.862 196.935 167.283 194.632Z"/><path fill="#F5F3F4" d="M169.396 200.201C182.892 198.969 195.677 205.765 205.921 213.946C209.67 216.94 212.86 220.581 215.771 224.383C221.977 232.489 227.01 241.599 232.711 250.076C240.871 262.208 251.025 275.163 257.596 288.037C260.299 293.331 262.033 298.224 262.673 304.151C264.102 317.399 260.941 329.399 252.597 339.771C254.014 336.132 255.358 332.466 256.63 328.773C259.282 319.226 259.977 309.153 257.655 299.456C256.603 295.066 254.848 290.967 252.68 287.017C246.523 275.805 238.426 265.546 231.337 254.91C224.643 244.868 218.666 233.832 210.798 224.679C206.285 219.366 200.935 214.825 194.959 211.236C181.503 203.123 166.999 201.656 151.901 205.334C157.605 202.31 162.99 200.901 169.396 200.201Z"/><path fill="#BA181B" d="M374.336 587.34C374.49 586.761 374.673 586.199 374.887 585.639C377.748 578.149 384.804 571.979 392.058 568.898C402.802 564.336 412.853 564.897 423.509 569.242C431.648 572.252 439.525 576.955 447.36 580.718C458.455 586.046 469.856 590.82 481.07 595.904L520.284 613.334C525.355 615.563 530.887 617.315 535.77 619.888C531.664 629.577 529.033 639.608 525.255 649.367C519.872 650.77 514.425 651.632 509.032 652.91C505.826 642.918 499.514 635.696 490.157 630.932C480.074 625.797 467.555 624.509 456.737 628.018C454.446 628.762 452.287 629.837 450.233 631.085C444.625 624.923 439.343 618.454 433.991 612.07C435.546 603.823 433.34 595.06 428.609 588.175C424.384 582.025 418.16 577.879 410.817 576.548C404.425 575.389 396.916 576.237 391.596 580.152C387.348 583.277 384.81 588.323 384.165 593.5C383.387 599.764 385.219 606.073 389.231 610.946C392.563 614.976 397.309 617.775 402.582 618.123C407.212 618.428 412.361 616.836 415.824 613.7C418.467 611.307 419.833 607.977 419.932 604.43C419.977 602.83 419.688 601.522 419.208 600.009C419.608 599.051 420.159 598.352 420.769 597.523C419.108 594.05 417.844 591.781 414.627 589.455C415.243 589.076 416.094 588.652 416.596 588.141C417.683 587.035 417.256 585.812 417.18 584.396C422.878 587.839 426.657 592.164 428.271 598.788C428.774 600.872 429.053 603.003 429.102 605.146C428.807 608.884 428.133 612.505 426.516 615.922C423.563 622.162 417.974 626.551 411.459 628.637C403.77 631.1 394.046 630.673 386.895 626.827C380.177 623.214 375.026 616.471 372.782 609.226C370.599 602.177 370.875 593.921 374.336 587.34Z"/><defs><linearGradient id="gradient_0" gradientUnits="userSpaceOnUse" x1="396.62546" y1="580.32574" x2="394.16745" y2="568.18042"><stop offset="0" stop-color="#FFDCD4"/><stop offset="1" stop-color="#FFF5F3"/></linearGradient></defs><path fill="url(#gradient_0)" d="M374.336 587.34C374.49 586.761 374.673 586.199 374.887 585.639C377.748 578.149 384.804 571.979 392.058 568.898C402.802 564.336 412.853 564.897 423.509 569.242C423.206 569.25 422.903 569.262 422.599 569.265C418.876 569.302 414.995 568.356 411.22 568.201C400.258 567.748 388.829 571.751 380.95 579.526C378.576 581.868 376.824 584.591 375.026 587.375L374.336 587.34Z"/><path fill="#F4756D" d="M417.18 584.396C422.878 587.839 426.657 592.164 428.271 598.788C428.774 600.872 429.053 603.003 429.102 605.146C428.481 605.593 428.8 605.535 428.183 605.468C428.014 603.074 427.776 600.844 427.116 598.519C426.366 595.876 425.648 592.128 423.135 590.743C422.072 591.3 421.481 591.522 421.091 592.779C420.158 595.782 422.245 600.105 423.34 602.901C422.053 601.402 421.473 599.348 420.769 597.523C419.108 594.05 417.844 591.781 414.627 589.455C415.243 589.076 416.094 588.652 416.596 588.141C417.683 587.035 417.256 585.812 417.18 584.396Z"/><path fill="#BA181B" d="M248.566 411.923C254.185 420.561 260.026 429.634 266.828 437.363C263.17 445.152 260.004 452.323 263.018 461.063C266.312 470.614 297.236 514.997 305.093 523.695C308.031 526.948 311.423 530.019 315.407 531.911C319.41 533.811 326.056 536.033 330.288 534.469C331.375 534.067 331.951 533.747 333.134 533.943C334.561 534.975 335.166 535.935 336.009 537.468C336.807 538.664 337.661 539.853 338.401 541.084L348.876 557.672C342.97 560.73 336.501 562.546 329.867 563.01C314.693 564.057 299.251 557.616 287.965 547.68C279.765 540.462 274.25 530.72 267.913 521.938C253.52 501.99 234.439 482.195 233.054 456.219C232.205 440.308 237.857 423.729 248.566 411.923Z"/><path fill="#F5F3F4" d="M256.573 451.797L257.22 451.571L257.977 454.623C258.377 459.394 259.869 463.68 261.945 467.964C266.387 477.131 273.022 485.777 278.68 494.258C284.735 503.334 290.551 513.028 297.396 521.518C299.5 524.114 301.843 526.507 304.394 528.666C313.355 536.288 322.679 538.658 334.178 537.649C334.789 537.596 335.4 537.536 336.009 537.468C336.807 538.664 337.661 539.853 338.401 541.084C335.155 542.263 330.642 542.682 327.174 542.583C316.104 542.267 305.617 536.101 298.178 528.196C290.519 520.058 262.506 478.426 258.683 468.168C256.624 462.646 256.399 457.643 256.573 451.797Z"/><path fill="#E8A59C" d="M256.573 451.797L256.764 445.685L257.851 445.259L257.765 444.79L256.841 444.614L257.631 444.231C258.285 447.667 258.068 451.145 257.977 454.623L257.22 451.571L256.573 451.797Z"/><path fill="white" d="M96.397 121.139C99.7097 120.816 102.806 120.828 106.085 121.461C111.902 122.58 117.321 125.211 121.799 129.088C131.388 137.555 141.207 155.192 148.362 166.3C153.466 174.201 158.686 182.026 164.022 189.772C149.348 194.508 140.077 201.756 130.502 213.807C127.606 217.703 124.991 221.798 122.675 226.063C118.14 221.163 114.43 215.494 110.547 210.074C104.539 201.761 98.6389 193.37 92.8481 184.904C87.9504 177.747 82.2864 170.584 77.9941 163.062C76.2533 160.011 74.7087 156.612 74.0057 153.162C72.5268 145.905 73.6769 138.24 78.0031 132.122C82.4656 125.811 88.9747 122.496 96.397 121.139Z"/><path fill="white" d="M301.458 427.491C306.063 428.851 310.352 430.708 314.085 433.784C322.191 440.465 341.852 470.468 347.844 480.256C351.307 485.914 354.848 493.565 353.238 500.306L349.825 501.825C342.238 505.152 332.295 510.747 326.774 516.996C326.646 517.141 326.523 517.29 326.397 517.437C326.425 517.58 326.45 517.724 326.481 517.867C326.532 518.105 326.592 518.341 326.643 518.579C327.418 522.141 329.242 525.431 330.809 528.706C328.558 528.619 326.432 528.431 324.216 528.018C323.295 527.726 322.389 527.389 321.5 527.01C316.862 525.017 312.669 522.116 309.17 518.477C303.684 512.72 271.429 466.945 269.377 461.616C266.874 455.114 267.895 449.177 270.691 443.066C271.751 443.589 272.88 444.222 274.004 444.582C278.225 445.935 290.003 438.114 293.855 435.771C297.611 433.487 300.376 431.994 301.458 427.491Z"/><path fill="#BA181B" d="M276.962 392.302C292.37 388.518 307.077 388.396 320.949 396.908C326.578 400.362 331.938 404.709 336.356 409.624C345.866 420.205 353.719 433.133 361.736 444.905C368.346 454.61 375.722 464.367 381.271 474.713C383.8 479.428 386.052 484.688 387.244 489.917C390.935 506.111 388.846 517.725 380.963 532.033L376.86 525.968L374.704 523.014C369.249 517.719 364.134 508.322 358.991 502.106C359.147 496.852 359.111 491.814 357.544 486.742C354.555 477.074 333.204 447.387 326.222 438.233C317.529 426.836 309.436 422.595 295.41 420.752C290.384 414.008 286.103 406.305 281.696 399.12L280.199 397.15C279.02 395.566 277.902 394.04 276.962 392.302Z"/><path fill="#BA181B" d="M276.962 392.302C292.37 388.518 307.077 388.396 320.949 396.908C326.578 400.362 331.938 404.709 336.356 409.624C345.866 420.205 353.719 433.133 361.736 444.905C368.346 454.61 375.722 464.367 381.271 474.713C383.8 479.428 386.052 484.688 387.244 489.917C390.935 506.111 388.846 517.725 380.963 532.033L376.86 525.968L374.704 523.014C377.705 511.366 378.911 500.378 376.6 488.466C375.663 483.407 373.98 478.515 371.607 473.95C368.024 467.081 363.025 460.949 358.655 454.574C349.928 441.845 341.226 427.997 331.024 416.42C327.474 412.315 323.395 408.7 318.894 405.669C306.935 397.718 295.523 396.397 281.696 399.12L280.199 397.15C279.02 395.566 277.902 394.04 276.962 392.302Z"/><path fill="#F5F3F4" d="M280.199 397.15C286.924 392.628 295.862 392.702 303.587 394.221C327.028 398.831 339.508 419.484 352.041 437.701C357.236 445.251 362.836 452.583 367.863 460.237C378.931 477.093 385.141 495.188 380.801 515.483C380.048 519.003 378.874 522.967 376.86 525.968L374.704 523.014C377.705 511.366 378.911 500.378 376.6 488.466C375.663 483.407 373.98 478.515 371.607 473.95C368.024 467.081 363.025 460.949 358.655 454.574C349.928 441.845 341.226 427.997 331.024 416.42C327.474 412.315 323.395 408.7 318.894 405.669C306.935 397.718 295.523 396.397 281.696 399.12L280.199 397.15Z"/><path fill="white" d="M194.562 244.927C203.111 255.534 210.625 267.333 218.324 278.569C222.874 285.209 228.012 291.666 232.125 298.566C233.429 300.755 234.623 303.054 235.086 305.583C236.381 312.671 234.635 318.865 230.655 324.696C227.839 324.192 226.161 323.987 223.46 324.975C217.891 327.013 209.815 331.361 205.847 335.768C204.65 337.097 203.846 339.194 203.08 340.807C199.506 340.276 196.295 339.447 192.949 338.089C190.366 336.513 188.313 334.847 186.324 332.561C181.111 326.571 176.817 319.343 172.313 312.786C164.293 301.185 156.342 289.538 148.46 277.845C150.556 277.38 152.644 276.876 154.722 276.334C171.967 271.669 185.684 260.255 194.562 244.927Z"/><path fill="white" d="M569.684 560.94C595.63 568.837 621.568 571.437 648.608 571.478C644.809 575.75 639.726 581.563 634.88 584.584C607.999 606.948 580.153 628.782 547.397 641.953C550.577 628.223 554.923 614.79 560.387 601.799C561.74 598.621 570.201 582.521 570.259 581.101C567.835 583.506 566.142 586.968 564.435 589.918C554.64 606.842 547.996 624.823 542.506 643.536C538.989 644.848 535.428 646.037 531.828 647.102C540.287 619.73 551.466 594.706 565.069 569.537L569.684 560.94Z"/><path fill="#D3D3D3" d="M569.684 560.94C595.63 568.837 621.568 571.437 648.608 571.478C644.809 575.75 639.726 581.563 634.88 584.584C631.596 582.777 624.128 583.728 620.2 583.509C613.67 583.145 606.958 581.953 600.525 580.809C588.318 578.637 576.206 575.076 565.069 569.537L569.684 560.94Z"/><path fill="#BA181B" d="M113.404 268.33C120.771 272.392 128.154 274.868 136.172 277.235L138.729 277.745C142.127 278.274 143.015 279.582 145.003 282.33C149.9 289.101 154.285 296.333 158.905 303.302C163.517 310.258 168.408 317.009 173.15 323.873C176.286 328.412 179.217 333.936 183.031 337.918C187.247 342.32 194.148 344.546 199.882 346.017C201.162 346.345 203.146 346.475 204.302 346.993C205.093 347.348 205.638 348.581 205.986 349.306L207.947 352.855C213.646 359.863 218.315 368.499 223.201 376.13C221.353 376.563 219.486 377.008 217.603 377.257C201.35 379.408 185.311 375.318 172.479 365.185C168.623 362.14 165.089 358.707 161.934 354.941C155.781 347.538 150.733 338.84 145.249 330.913C136.246 317.897 125.669 305.64 119.133 291.105C115.822 283.742 114.311 276.31 113.404 268.33Z"/><path fill="#F5F3F4" d="M136.172 277.235L138.729 277.745C142.127 278.274 143.015 279.582 145.003 282.33C149.9 289.101 154.285 296.333 158.905 303.302C163.517 310.258 168.408 317.009 173.15 323.873C176.286 328.412 179.217 333.936 183.031 337.918C187.247 342.32 194.148 344.546 199.882 346.017C201.162 346.345 203.146 346.475 204.302 346.993C205.093 347.348 205.638 348.581 205.986 349.306L207.947 352.855C207.515 353.04 207.45 353.089 206.919 353.196C198.92 354.81 187.608 351.322 181.183 346.5C178.362 344.383 175.779 341.172 173.673 338.353C167.615 330.244 137.095 284.219 136.172 277.235Z"/><path fill="#BA181B" d="M138.729 277.745C142.127 278.274 143.015 279.582 145.003 282.33C149.9 289.101 154.285 296.333 158.905 303.302C163.517 310.258 168.408 317.009 173.15 323.873C176.286 328.412 179.217 333.936 183.031 337.918C187.247 342.32 194.148 344.546 199.882 346.017C201.162 346.345 203.146 346.475 204.302 346.993C205.093 347.348 205.638 348.581 205.986 349.306C201.841 349.376 197.426 349.057 193.396 348.027C188.643 346.812 184.103 344.532 180.536 341.134C173.409 334.343 168.872 325.038 163.568 316.839C155.173 303.858 146.695 291.004 138.729 277.745Z"/><path fill="#BA181B" d="M228.214 329.322C233.947 336.893 239.093 344.914 244.494 352.723L277.852 401.048C284.059 410.005 289.713 419.327 296.765 427.664C289.498 431.04 281.237 434.209 274.572 438.675C273.728 438.597 273.242 438.56 272.566 437.977C269.079 434.971 263.43 424.542 260.482 420.262C244.318 396.789 227.577 373.558 212.126 349.624C210.847 347.643 208.402 344.482 208.142 342.123C208.055 341.335 208.884 340.771 209.367 340.207C215.598 336.857 222.407 333.342 228.214 329.322Z"/><path fill="white" d="M209.367 340.207C215.455 345.699 227.695 365.824 232.903 373.487C244.574 390.66 256.403 407.418 267.117 425.23C269.624 429.398 273.149 434.045 274.572 438.675C273.728 438.597 273.242 438.56 272.566 437.977C269.079 434.971 263.43 424.542 260.482 420.262C244.318 396.789 227.577 373.558 212.126 349.624C210.847 347.643 208.402 344.482 208.142 342.123C208.055 341.335 208.884 340.771 209.367 340.207Z"/><path fill="#BA181B" d="M332.789 517.594C338.97 514.569 349.372 508.261 354.416 503.584C359.751 509.075 364.027 515.353 368.426 521.588C377.811 534.889 386.479 549.147 396.595 561.882C387.52 565.435 381.093 570.183 374.146 576.981L371.57 580.642C362.811 569.516 355.429 556.957 347.648 545.128C342.902 537.912 335.476 528.726 332.428 520.709C331.895 519.309 332.121 518.887 332.789 517.594Z"/><path fill="white" d="M332.789 517.594C337.045 522.427 340.48 528.266 344.309 533.482C352.79 545.038 368.536 564.699 374.146 576.981L371.57 580.642C362.811 569.516 355.429 556.957 347.648 545.128C342.902 537.912 335.476 528.726 332.428 520.709C331.895 519.309 332.121 518.887 332.789 517.594Z"/><path fill="white" d="M742.933 676.751C754.504 678.293 766.939 682.484 774.66 691.716C780.15 698.28 783.964 708.23 783.164 716.84C781.633 730.537 776.448 740.751 765.63 749.37C762.089 752.192 758.334 754.774 754.642 757.395C754.346 752.751 753.886 748.165 753.337 743.545C750.731 721.066 747.619 698.899 742.933 676.751Z"/><path fill="#D3D3D3" d="M753.337 743.545C759.548 738.651 766.7 734.491 772.392 729.014C776.292 725.262 779.056 720.375 783.164 716.84C781.633 730.537 776.448 740.751 765.63 749.37C762.089 752.192 758.334 754.774 754.642 757.395C754.346 752.751 753.886 748.165 753.337 743.545Z"/><path fill="#BA181B" d="M521.323 711.188C521.663 726.139 522.457 740.6 526.81 755.039C529.003 762.311 531.732 769.644 535.311 776.358C537.949 781.307 543.19 785.791 544.571 791.284C545.909 796.602 544.888 803.286 544.897 808.776C544.903 811.813 545.926 816.671 544.849 819.422L544.21 818.803C538.347 812.528 530.282 798.447 525.314 790.857C514.196 773.881 502.81 757.08 491.161 740.463L491.349 739.769L493.856 738.952C506.06 734.096 515.868 722.938 521.323 711.188Z"/><path fill="#F5F3F4" d="M493.856 738.952C495.614 741.173 497.359 743.403 499.091 745.644C503.865 753.582 508.878 761.815 514.843 768.92C519.894 777.349 542.854 813.052 544.21 818.803C538.347 812.528 530.282 798.447 525.314 790.857C514.196 773.881 502.81 757.08 491.161 740.463L491.349 739.769L493.856 738.952Z"/><path fill="#E5383B" d="M499.091 745.644C505.041 747.392 509.885 757.985 512.836 763.351C513.774 765.057 514.979 766.898 514.843 768.92C508.878 761.815 503.865 753.582 499.091 745.644Z"/><path fill="white" d="M556.653 556.364C560.211 557.884 564.055 559.019 567.707 560.317C554.527 577.258 545.08 597.36 536.267 616.821C527.744 613.602 519.474 609.394 511.227 605.522C503.916 602.266 496.311 599.251 489.406 595.197C514.649 586.472 536.898 574.497 556.653 556.364Z"/><path fill="#BA181B" d="M431.85 617.899C440.574 625.888 451.621 642.306 461.073 647.918C462.327 648.662 464.012 649.32 464.12 650.947C464.314 653.854 461.291 657.666 459.249 659.453C453.84 664.187 442.188 662.613 435.329 664.626L430.163 666.428C422.12 657.018 415.911 645.9 408.291 636.077L414.002 634.369C422.233 631.456 427.872 625.512 431.85 617.899Z"/><path fill="white" d="M414.002 634.369C420.674 644.773 428.531 654.343 435.329 664.626L430.163 666.428C422.12 657.018 415.911 645.9 408.291 636.077L414.002 634.369Z"/><path fill="white" d="M364.629 601.343C366.969 610.254 367.692 615.938 373.575 623.597C380.099 632.092 388.289 635.746 398.741 637.079C395.766 642.45 393.88 646.427 388.137 649.212C386.904 649.541 385.666 649.85 384.404 650.041C377.724 651.049 370.724 648.844 365.389 644.804C360.265 640.924 356.539 635.369 355.685 628.929C354.337 618.762 358.733 609.288 364.629 601.343Z"/><path fill="white" d="M353.22 639.821C355.521 641.737 357.258 644.713 359.378 646.882C364.841 652.476 373.702 656.568 381.511 656.553C388.501 656.539 393.45 653.594 398.172 648.757C398.881 653.495 400.413 658.85 398.044 663.28C396.707 664.972 395.376 666.653 393.681 668.008C388.889 671.836 382.473 673.259 376.454 672.426C368.832 671.371 361.169 666.776 356.75 660.498C352.242 654.092 351.942 647.221 353.22 639.821Z"/><path fill="white" d="M357.005 669.445C361.235 673.01 366.048 675.813 371.41 677.272C380.794 679.827 388.607 677.126 396.698 672.589C396.62 676.091 396.009 678.941 394.719 682.184C394.32 682.848 393.92 683.499 393.478 684.136C391.173 687.465 387.772 689.478 383.774 690.09C377.662 691.025 370.206 689.341 365.279 685.643C359.827 681.552 358.051 675.843 357.005 669.445Z"/><path fill="#A4161A" d="M389.619 591.418C391.4 587.815 393.814 584.937 397.533 583.234C403.836 580.346 411.025 581.996 417.18 584.396C417.256 585.812 417.683 587.035 416.596 588.141C416.094 588.652 415.243 589.076 414.627 589.455C417.844 591.781 419.108 594.05 420.769 597.523C420.159 598.352 419.608 599.051 419.208 600.009C416.917 597.483 413.392 595.662 410.111 594.836C402.005 592.795 394.768 596.76 388.014 600.693C388.123 597.628 387.945 594.094 389.619 591.418Z"/><path fill="#E8A59C" d="M389.619 591.418C391.4 587.815 393.814 584.937 397.533 583.234C403.836 580.346 411.025 581.996 417.18 584.396C417.256 585.812 417.683 587.035 416.596 588.141C416.094 588.652 415.243 589.076 414.627 589.455C408.075 587.265 402.093 586.304 395.567 589.464C393.84 590.301 392.286 591.436 390.511 592.174L389.619 591.418Z"/><path fill="#D3D3D3" d="M928.758 914.905C933.075 921.361 936.781 927.292 938.751 934.894C935.172 936.249 931.469 937.488 928.054 939.218C924.513 932.602 920.71 926.259 915.904 920.471C920.305 919.267 925.266 917.966 928.758 914.905Z"/><path fill="#BA181B" d="M403.714 640.297C406.517 642.087 421.315 664.752 424.542 669.169C423.213 670.496 422.361 671.817 421.421 673.437L420.28 676.412C419.593 676.154 407.771 657.639 404.294 653.965C403.71 649.749 402.397 644.437 403.714 640.297Z"/><path fill="#D3D3D3" d="M417.572 920.973C421.579 923.436 425.304 925.89 429.877 927.202C427.737 930.893 426.072 934.724 424.551 938.702C421.348 938.497 416.86 938.547 413.97 937.195C413.092 936.784 412.263 936.167 411.984 935.21C410.988 931.792 415.912 924.254 417.572 920.973Z"/><path fill="white" d="M412.835 609.984C412.686 610.089 412.542 610.202 412.389 610.3C409.94 611.872 407.391 612.823 404.486 612.295C402.306 608.707 399.563 605.39 397.542 601.743L398.143 600.671C401.087 599.104 404.211 599.366 407.422 599.587C410.064 599.954 412.345 600.813 414.052 602.974C414.837 603.967 415.324 605.205 415.176 606.487C414.989 608.106 413.963 608.97 412.835 609.984Z"/><path fill="#A4161A" d="M407.422 599.587C410.064 599.954 412.345 600.813 414.052 602.974C414.837 603.967 415.324 605.205 415.176 606.487C414.989 608.106 413.963 608.97 412.835 609.984C411.013 606.525 409.299 603.018 407.422 599.587Z"/><path fill="#BA181B" d="M251.385 355.997C252.635 355.922 253.548 355.969 254.762 356.285C258.367 360.014 276.132 383.419 276.931 387.353C275.74 387.476 274.609 387.459 273.415 387.431C271.111 385.989 252.042 358.793 251.385 355.997Z"/><path fill="#A4161A" d="M664.309 861.163C665.68 863.642 667.936 867.854 667.048 870.686C666.875 871.237 666.521 871.981 665.945 872.237C665.017 872.648 664.873 872.335 664.053 871.966C662.395 869.203 662.48 865.477 662.166 862.319C663.089 862.203 663.569 861.695 664.309 861.163Z"/><path fill="#A4161A" d="M391.997 603.653C394.809 605.392 397.659 609.692 399.154 612.608L398.755 613.149C398.309 612.984 397.859 612.824 397.423 612.63C395.267 611.673 391.488 609.503 390.904 606.955C390.519 605.274 391.091 604.921 391.997 603.653Z"/><path fill="#F5F3F4" d="M662.166 862.319C661.78 859.047 661.536 855.917 661.604 852.622C662.455 855.484 663.357 858.332 664.309 861.163C663.569 861.695 663.089 862.203 662.166 862.319Z"/></svg>